TITLE:   R1V26.0_SUDO_WIP_VFX FCM: NON-DROP FRAME 001  ACADEMY_ V     C        01:00:00:00 01:00:08:00 01:00:00:00 01:00:08:00 * FROM CLIP NAME:  COUNTDOWN LEADER  (3 PIX 8 AUDIO) 002     BL    V     C        00:00:00:00 00:00:00:00 01:00:37:13 01:00:37:13 002  001_JOS_ V     D    048 00:00:03:07 00:00:06:20 01:00:37:13 01:00:41:02 * EFF2_BLEND_DISSOLVE * TO CLIP NAME:  001_JOS_0015_CMP_V0035.MOV * LOC: 01:00:40:05 MAGENTA * LOC: 01:00:41:02 CYAN    001_JOS_0015 003  001_JOS_ V     C        00:00:06:20 00:00:06:20 01:00:41:02 01:00:41:02 003  001_JOS_ V     D    048 00:00:00:09 00:00:05:23 01:00:41:02 01:00:46:16 * EFF2_BLEND_DISSOLVE * FROM CLIP NAME:  001_JOS_0015_CMP_V0035.MOV * TO CLIP NAME:  001_JOS_0020_CMP_V0038.MOV * LOC: 01:00:41:18 MAGENTA * LOC: 01:00:42:15 CYAN    001_JOS_0015 * LOC: 01:00:46:06 MAGENTA * LOC: 01:00:47:19 CYAN    001_JOS_0020 004  001_JOS_ V     C        00:00:05:23 00:00:05:23 01:00:46:16 01:00:46:16 004  001_JOS_ V     D    048 00:00:00:02 00:00:04:11 01:00:46:16 01:00:51:01 * EFF2_BLEND_DISSOLVE * FROM CLIP NAME:  001_JOS_0020_CMP_V0038.MOV * TO CLIP NAME:  001_JOS_0030_V0017.MOV * LOC: 01:00:49:20 MAGENTA * LOC: 01:00:51:09 CYAN    001_JOS_0020 * LOC: 01:00:52:16 CYAN    001_JOS_0030 005     BL    V     C        00:00:00:00 00:00:00:00 01:01:00:09 01:01:00:09 005  001_JOS_ V     D    058 00:00:00:00 00:00:14:07 01:01:00:09 01:01:14:16 * EFF2_BLEND_DISSOLVE * TO CLIP NAME:  001_JOS_0100_CMP_V4006.MOV * LOC: 01:01:11:20 CYAN    001_JOS_0100 006  004_MMH_ V     C        00:00:00:09 00:00:05:11 01:03:11:09 01:03:16:11 * FROM CLIP NAME:  004_MMH_0170_CMP_V5003.MOV * LOC: 01:03:12:20 MAGENTA * LOC: 01:03:14:23 CYAN    004_MMH_0170 007  004_MMH_ V     C        00:00:00:09 00:00:13:01 01:03:20:17 01:03:33:09 * FROM CLIP NAME:  004_MMH_0190_CMP_V5006.MOV 008  005_PJB_ V     C        00:00:00:09 00:00:03:20 01:03:37:07 01:03:40:18 * FROM CLIP NAME:  005_PJB_0020_CMP_V3052.MOV * LOC: 01:03:38:08 MAGENTA * LOC: 01:03:39:06 CYAN    005_PJB_0020 009  006_PJB_ V     C        00:00:00:01 00:00:03:19 01:03:40:18 01:03:44:12 * FROM CLIP NAME:  006_PJB_0030_CMP_V3112.MOV * LOC: 01:03:43:00 CYAN    006_PJB_0030 010  006_PJB_ V     C        00:00:00:09 00:00:05:19 01:03:44:12 01:03:49:22 * EFF_PAINT * EFF2_BLEND_RESIZE * FROM CLIP NAME:  006_PJB_0040_CMP_V5001.MOV * LOC: 01:03:49:06 CYAN    006_PJB_0040 011  006_PJB_ V     C        00:00:00:09 00:00:02:05 01:03:49:22 01:03:51:18 * FROM CLIP NAME:  006_PJB_0050_CMP_V5002.MOV * LOC: 01:03:51:02 CYAN    006_PJB_0050 012  006_PJB_ V     C        00:00:00:09 00:00:01:23 01:03:53:02 01:03:54:16 * FROM CLIP NAME:  006_PJB_0070_CMP_V5001.MOV * LOC: 01:03:54:00 CYAN    006_PJB_0070 013  013_CRC_ V     C        00:00:00:09 00:00:02:22 01:05:15:01 01:05:17:14 * FROM CLIP NAME:  013_CRC_0070_V0001.MOV * LOC: 01:05:16:07 CYAN    013_CRC_0070 014  013_CRC_ V     C        00:00:00:09 00:00:02:11 01:05:31:02 01:05:33:04 * FROM CLIP NAME:  013_CRC_0160_CMP_V0042.MOV * LOC: 01:05:32:08 CYAN    013_CRC_0160 015  013_CRC_ V     C        00:00:00:01 00:00:05:10 01:05:42:21 01:05:48:06 * FROM CLIP NAME:  013_CRC_0140_FX_V0096.MOV * LOC: 01:05:44:00 MAGENTA * LOC: 01:05:46:00 CYAN    013_CRC_0140 016  013_CRC_ V     C        00:00:00:17 00:00:04:07 01:05:48:06 01:05:51:20 * FROM CLIP NAME:  013_CRC_0180_CMP_V0035.MOV * LOC: 01:05:49:20 CYAN    013_CRC_0180 017  013_CRC_ V     C        00:00:00:09 00:00:04:05 01:05:51:20 01:05:55:16 * FROM CLIP NAME:  013_CRC_0195_V0012.MOV * LOC: 01:05:53:13 CYAN    013_CRC_0195 018  013_CRC_ V     C        00:00:00:09 00:00:02:09 01:06:01:05 01:06:03:05 * FROM CLIP NAME:  013_CRC_0250_CMP_V0028.MOV * LOC: 01:06:02:12 CYAN    013_CRC_0250 019  013_CRC_ V     C        00:00:00:09 00:00:01:06 01:06:05:17 01:06:06:14 * FROM CLIP NAME:  013_CRC_0280_V0001.MOV * LOC: 01:06:05:22 CYAN    013_CRC_0280 / MISSING REPO 020  013_CRC_ V     C        00:00:00:09 00:00:08:03 01:06:06:14 01:06:14:08 * FROM CLIP NAME:  013_CRC_0350_CMP_V0086.MOV * LOC: 01:06:09:21 MAGENTA * LOC: 01:06:11:04 CYAN    013_CRC_0350 021  014_CRC_ V     C        00:00:00:09 00:00:04:08 01:06:26:15 01:06:30:14 * FROM CLIP NAME:  014_CRC_0310_CMP_V5001.MOV * LOC: 01:06:29:08 CYAN    014_CRC_0310 / CUTBACK 022  014_CRC_ V     C        00:00:00:09 00:00:01:19 01:06:30:14 01:06:32:00 * FROM CLIP NAME:  014_CRC_0320_CMP_V2002.MOV * LOC: 01:06:31:11 CYAN    014_CRC_0320 023  014_CRC_ V     C        00:00:05:05 00:00:08:03 01:06:32:00 01:06:34:22 * FROM CLIP NAME:  014_CRC_0310_CMP_V5001.MOV * LOC: 01:06:33:00 CYAN    014_CRC_0310 / CUTBACK 024  015_CRC_ V     C        00:00:00:09 00:00:05:11 01:06:42:06 01:06:47:08 * FROM CLIP NAME:  015_CRC_0365_CMP_V0092.MOV * LOC: 01:06:45:10 CYAN    015_CRC_0365 025  016_CRC_ V     C        00:00:00:09 00:00:02:06 01:07:01:06 01:07:03:03 * FROM CLIP NAME:  016_CRC_0980_CMP_V0083.MOV * LOC: 01:07:02:03 CYAN    016_CRC_0980 * LOC: 01:07:02:16 MAGENTA 026  015_CRC_ V     C        00:00:01:03 00:00:03:06 01:07:09:22 01:07:12:01 * FROM CLIP NAME:  015_CRC_0445_CMP_V0073.MOV * LOC: 01:07:11:07 CYAN    015_CRC_0445 027  017_CRC_ V     C        00:00:00:09 00:00:01:07 01:07:23:00 01:07:23:22 * FROM CLIP NAME:  017_CRC_0480_CMP_V0148.MOV * LOC: 01:07:23:14 CYAN    017_CRC_0480 028  017_CRC_ V     C        00:00:00:08 00:00:01:00 01:07:23:22 01:07:24:14 * FROM CLIP NAME:  017_CRC_0485_CMP_V0107.MOV * LOC: 01:07:24:02 MAGENTA * LOC: 01:07:24:07 CYAN    017_CRC_0485 029  017_CRC_ V     C        00:00:00:10 00:00:01:19 01:07:25:03 01:07:26:04 M2   017_CRC_       032.4                00:00:00:10 * TIMEWARP EFFECT AT SEQUENCE TC 01:07:25:03. * FROM CLIP NAME:  017_CRC_0065_CMP_V0053.MOV * LOC: 01:07:25:12 CYAN    017_CRC_0065 030  017_CRC_ V     C        00:00:00:13 00:00:01:01 01:07:26:18 01:07:27:06 * FROM CLIP NAME:  017_CRC_0510_CMP_V0094.MOV * LOC: 01:07:27:03 CYAN    017_CRC_0510 031  017_CRC_ V     C        00:00:00:12 00:00:01:04 01:07:27:06 01:07:27:22 * FROM CLIP NAME:  017_CRC_0520_CMP_V0074.MOV * LOC: 01:07:27:10 MAGENTA * LOC: 01:07:27:16 CYAN    017_CRC_0520 032  017_CRC_ V     C        00:00:00:09 00:00:00:23 01:07:27:22 01:07:28:12 * FROM CLIP NAME:  017_CRC_0540_CMP_V0073.MOV * LOC: 01:07:28:06 CYAN    017_CRC_0540 033  017_CRC_ V     C        00:00:00:09 00:00:01:11 01:07:28:12 01:07:29:14 * FROM CLIP NAME:  017_CRC_0530_CMP_V0034.MOV * LOC: 01:07:29:07 CYAN    017_CRC_0530 034  017_CRC_ V     C        00:00:00:09 00:00:01:05 01:07:29:14 01:07:30:10 * FROM CLIP NAME:  017_CRC_0545_CMP_V0062.MOV * LOC: 01:07:30:01 CYAN    017_CRC_0545 035  017_CRC_ V     C        00:00:00:13 00:00:01:10 01:07:30:10 01:07:31:07 * FROM CLIP NAME:  017_CRC_0560_CMP_V0034.MOV * LOC: 01:07:30:22 CYAN    017_CRC_0560 036  017_CRC_ V     C        00:00:00:09 00:00:02:03 01:07:31:07 01:07:33:01 * FROM CLIP NAME:  017_CRC_0570_CMP_V0127.MOV * LOC: 01:07:32:07 CYAN    017_CRC_0570 037  017_CRC_ V     C        00:00:00:09 00:00:02:10 01:07:33:01 01:07:35:02 * FROM CLIP NAME:  017_CRC_0090_ANIM_V0137.MOV * LOC: 01:07:33:17 MAGENTA * LOC: 01:07:34:06 CYAN    017_CRC_0090 038  017_CRC_ V     C        00:00:00:20 00:00:02:06 01:07:35:02 01:07:36:12 * FROM CLIP NAME:  017_CRC_0585_CMP_V0071.MOV * LOC: 01:07:35:23 CYAN    017_CRC_0585 / CUTBACK 039  017_CRC_ V     C        00:00:00:09 00:00:01:11 01:07:36:12 01:07:37:14 * FROM CLIP NAME:  017_CRC_0125_ANIM_V0060.MOV * LOC: 01:07:37:05 CYAN    017_CRC_0125 040  017_CRC_ V     C        00:00:02:23 00:00:04:03 01:07:37:14 01:07:38:18 * FROM CLIP NAME:  017_CRC_0585_CMP_V0071.MOV * LOC: 01:07:38:08 CYAN    017_CRC_0585 / CUTBACK 041  017_CRC_ V     C        00:00:00:09 00:00:01:20 01:07:38:18 01:07:40:05 * FROM CLIP NAME:  017_CRC_0595_CMP_V0108.MOV * LOC: 01:07:39:06 MAGENTA * LOC: 01:07:39:20 CYAN    017_CRC_0595 042  017_CRC_ V     C        00:00:00:09 00:00:01:00 01:07:40:05 01:07:40:20 * FROM CLIP NAME:  017_CRC_0600_CMP_V0041.MOV * LOC: 01:07:40:13 CYAN    017_CRC_0600 043  017_CRC_ V     C        00:00:00:10 00:00:01:11 01:07:42:07 01:07:43:08 * FROM CLIP NAME:  017_CRC_0620_CMP_V0053.MOV * LOC: 01:07:43:00 CYAN    017_CRC_0620 044  017_CRC_ V     C        00:00:00:14 00:00:01:05 01:07:43:08 01:07:43:23 * FROM CLIP NAME:  017_CRC_0175_CMP_V0091.MOV * LOC: 01:07:43:16 CYAN    017_CRC_0175 045  017_CRC_ V     C        00:00:00:03 00:00:00:21 01:07:43:23 01:07:44:17 * FROM CLIP NAME:  017_CRC_0625_CMP_V0096.MOV * LOC: 01:07:44:06 CYAN    017_CRC_0625 046  017_CRC_ V     C        00:00:00:09 00:00:01:12 01:07:44:17 01:07:45:20 * FROM CLIP NAME:  017_CRC_0630_CMP_V0070.MOV * LOC: 01:07:44:22 MAGENTA * LOC: 01:07:45:07 CYAN    017_CRC_0630 047  017_CRC_ V     C        00:00:00:01 00:00:01:02 01:07:46:13 01:07:47:14 * FROM CLIP NAME:  017_CRC_0655_CMP_V0069.MOV * LOC: 01:07:46:19 MAGENTA * LOC: 01:07:47:10 CYAN    017_CRC_0655 048  017_CRC_ V     C        00:00:00:05 00:00:01:11 01:07:47:14 01:07:48:20 * FROM CLIP NAME:  017_CRC_0202_CMP_V0115.MOV * LOC: 01:07:48:12 CYAN    017_CRC_0202 049  017_CRC_ V     C        00:00:00:09 00:00:03:10 01:07:48:20 01:07:51:21 * FROM CLIP NAME:  017_CRC_0650_CMP_V0089.MOV * LOC: 01:07:50:00 CYAN    017_CRC_0650 050  017_CRC_ V     C        00:00:00:15 00:00:01:11 01:07:51:21 01:07:52:17 * FROM CLIP NAME:  017_CRC_0665_CMP_V0046.MOV * LOC: 01:07:52:10 CYAN    017_CRC_0665 051  017_CRC_ V     C        00:00:00:09 00:00:01:13 01:07:52:17 01:07:53:21 * FROM CLIP NAME:  017_CRC_0203_CMP_V0072.MOV * LOC: 01:07:53:08 CYAN    017_CRC_0203 * LOC: 01:07:53:10 MAGENTA 052  017_CRC_ V     C        00:00:00:12 00:00:01:17 01:07:53:21 01:07:55:02 * FROM CLIP NAME:  017_CRC_0670_CMP_V0045.MOV * LOC: 01:07:54:17 CYAN    017_CRC_0670 053  017_CRC_ V     C        00:00:00:21 00:00:04:21 01:07:55:02 01:07:59:02 * FROM CLIP NAME:  017_CRC_0215_CMP_V0153.MOV * LOC: 01:07:57:11 CYAN    017_CRC_0215 054  017_CRC_ V     C        00:00:00:09 00:00:04:01 01:08:11:09 01:08:15:01 * FROM CLIP NAME:  017_CRC_0740_CMP_V0060.MOV * LOC: 01:08:13:12 CYAN    017_CRC_0740 055  030_CKD_ V     C        00:00:00:08 00:00:04:20 01:08:58:18 01:09:03:06 * FROM CLIP NAME:  030_CKD_0003_PSTV_V4002.MOV * LOC: 01:09:00:13 BLUE    030_CKD_0003 056  030_CKD_ V     C        00:00:00:09 00:00:02:17 01:09:06:12 01:09:08:20 * FROM CLIP NAME:  030_CKD_0007_PSTV_V4001.MOV * LOC: 01:09:07:18 BLUE    030_CKD_0007 057  034_CKD_ V     C        00:00:00:09 00:00:03:21 01:10:37:08 01:10:40:20 * FROM CLIP NAME:  034_CKD_0230_CMP_V5002.MOV * LOC: 01:10:39:09 CYAN    034_CKD_0230 058  034_CKD_ V     C        00:00:00:09 00:00:06:11 01:10:40:20 01:10:46:22 * FROM CLIP NAME:  034_CKD_0240_CMP_V5004.MOV * LOC: 01:10:41:10 CYAN    034_CKD_0240 059  034_CKD_ V     C        00:00:00:19 00:00:02:18 01:11:12:11 01:11:14:10 * FROM CLIP NAME:  034_CKD_0310_CMP_V5002.MOV * LOC: 01:11:13:14 CYAN    034_CKD_0310 060  035_CKA_ V     C        00:00:00:01 00:00:01:16 01:11:22:15 01:11:24:06 * FROM CLIP NAME:  035_CKA_0010_CMP_V1077.MOV * LOC: 01:11:23:15 CYAN    035_CKA_0010 061  035_CKA_ V     C        00:00:00:09 00:00:02:19 01:11:26:09 01:11:28:19 * FROM CLIP NAME:  035_CKA_0030_CMP_V1094.MOV * LOC: 01:11:27:18 CYAN    035_CKA_0030 062  035_CKA_ V     C        00:00:00:09 00:00:04:01 01:11:30:13 01:11:34:05 * FROM CLIP NAME:  035_CKA_0040_CMP_V1213.MOV * LOC: 01:11:32:09 CYAN    035_CKA_0040 063  035_CKA_ V     C        00:00:00:09 00:00:02:23 01:11:34:05 01:11:36:19 * FROM CLIP NAME:  035_CKA_0047_CMP_V1047.MOV * LOC: 01:11:35:04 CYAN    035_CKA_0047 064  035_CKA_ V     C        00:00:00:09 00:00:02:22 01:11:38:00 01:11:40:13 * FROM CLIP NAME:  035_CKA_0055_ANIM_V1156.MOV * LOC: 01:11:38:20 MAGENTA * LOC: 01:11:39:18 CYAN    035_CKA_0055 065  035_CKA_ V     C        00:00:00:09 00:00:01:23 01:11:43:07 01:11:44:21 * FROM CLIP NAME:  035_CKA_0075_CMP_V1084.MOV * LOC: 01:11:44:00 MAGENTA * LOC: 01:11:44:08 CYAN    035_CKA_0075 066  035_CKA_ V     C        00:00:00:09 00:00:01:02 01:11:44:21 01:11:45:14 * FROM CLIP NAME:  035_CKA_0080_CMP_V1144.MOV * LOC: 01:11:45:03 MAGENTA * LOC: 01:11:45:10 CYAN    035_CKA_0080 067  035_CKA_ V     C        00:00:00:12 00:00:01:17 01:11:46:04 01:11:47:09 * FROM CLIP NAME:  035_CKA_0087_CMP_V1081.MOV * LOC: 01:11:46:13 MAGENTA * LOC: 01:11:46:22 CYAN    035_CKA_0087 068  025_CET_ V     C        00:00:00:09 00:00:03:20 01:14:28:11 01:14:31:22 * EFF2_BLEND_RESIZE * FROM CLIP NAME:  025_CET_0190_CMP_V4003.MOV * LOC: 01:14:31:14 CYAN    025_CET_0190 069  025_CET_ V     C        00:00:03:20 00:00:03:20 01:14:31:22 01:14:31:22 069  025_CETB V     W001 010 00:00:04:20 00:00:06:20 01:14:31:22 01:14:33:22 * EFF2_BLEND_RESIZE * E816FE5A-3A35-3896-89D6-F43492F1595D * FROM CLIP NAME:  025_CET_0190_CMP_V4003.MOV * TO CLIP NAME:  025_CET_0190_CMP_V4003.MOV * LOC: 01:14:35:01 CYAN    025_CET_0190 070  043_CKC_ V     C        00:00:01:07 00:00:04:16 01:15:39:06 01:15:42:15 * FROM CLIP NAME:  043_CKC_0035_CMP_V4007.MOV * LOC: 01:15:40:05 CYAN    043_CKC_0035 071  044_CKC_ V     C        00:00:00:09 00:00:01:07 01:16:09:12 01:16:10:10 * FROM CLIP NAME:  044_CKC_0115_CMP_V5008.MOV * LOC: 01:16:10:05 CYAN    044_CKC_0115 / CUTBACK 072  044_CKC_ V     C        00:00:02:20 00:00:04:20 01:16:11:05 01:16:13:05 * FROM CLIP NAME:  044_CKC_0115_CMP_V5008.MOV * LOC: 01:16:11:22 CYAN    044_CKC_0115 / CUTBACK 073  044_CKC_ V     C        00:00:00:09 00:00:02:04 01:16:26:01 01:16:27:20 * FROM CLIP NAME:  044_CKC_0165_CMP_V1044.MOV * LOC: 01:16:27:00 CYAN    044_CKC_0165 074  044_CKC_ V     C        00:00:00:09 00:00:01:06 01:16:47:16 01:16:48:13 * FROM CLIP NAME:  044_CKC_0290_CMP_V1225.MOV * LOC: 01:16:48:04 CYAN    044_CKC_0290 075  044_CKC_ V     C        00:00:00:09 00:00:02:09 01:16:50:14 01:16:52:14 * FROM CLIP NAME:  044_CKC_0310_CMP_V1286.MOV * LOC: 01:16:51:11 MAGENTA * LOC: 01:16:51:22 CYAN    044_CKC_0310 076  044_CKC_ V     C        00:00:00:09 00:00:08:21 01:17:06:10 01:17:14:22 * FROM CLIP NAME:  044_CKC_0400_CMP_V0003.MOV * LOC: 01:17:11:04 CYAN    044_CKC_0400 077  027_JER_ V     C        00:00:03:22 00:00:04:05 01:17:21:18 01:17:22:01 * EFF_SUBMASTER * FROM CLIP NAME:  027_JER_0005_CMP_V1139.MOV * LOC: 01:17:23:06 MAGENTA * LOC: 01:17:25:05 CYAN    027_JER_0005 078  027_JER_ V     C        00:00:00:01 00:00:06:06 01:17:22:01 01:17:28:06 * EFF_SUBMASTER * FROM CLIP NAME:  027_JER_0005_CMP_V1155.MOV * LOC: 01:17:24:14 CYAN    027_JER_0005 079  027_JER_ V     C        00:00:10:10 00:00:11:19 01:17:28:06 01:17:29:15 * EFF_SUBMASTER * FROM CLIP NAME:  027_JER_0005_CMP_V1139.MOV * LOC: 01:17:29:18 MAGENTA * LOC: 01:17:31:17 CYAN    027_JER_0005 080  027_JER_ V     C        00:00:00:09 00:00:05:10 01:17:29:15 01:17:34:16 * FROM CLIP NAME:  027_JER_0010_CMP_V0051.MOV * LOC: 01:17:32:17 CYAN    027_JER_0010 081  027_JER_ V     C        00:00:00:09 00:00:02:10 01:17:34:16 01:17:36:17 * FROM CLIP NAME:  027_JER_0020_CMP_V0137.MOV * LOC: 01:17:35:07 MAGENTA * LOC: 01:17:36:00 CYAN    027_JER_0020 082  027_JER_ V     C        00:00:00:09 00:00:03:05 01:17:41:18 01:17:44:14 * FROM CLIP NAME:  027_JER_0003_CMP_V0029.MOV * LOC: 01:17:43:07 CYAN    027_JER_0003 083  027_JER_ V     C        00:00:00:09 00:00:02:22 01:17:44:14 01:17:47:03 * FROM CLIP NAME:  027_JER_0025_CMP_V0025.MOV * LOC: 01:17:45:20 CYAN    027_JER_0025 084  027_JER_ V     C        00:00:00:09 00:00:03:19 01:17:47:03 01:17:50:13 * FROM CLIP NAME:  027_JER_0030_CMP_V0038.MOV * LOC: 01:17:50:04 CYAN    027_JER_0030 085  027_JER_ V     C        00:00:00:09 00:00:08:11 01:17:50:13 01:17:58:15 * FROM CLIP NAME:  027_JER_0060_ANIM_V0112.MOV * LOC: 01:17:55:08 CYAN    027_JER_0060 086  027_JER_ V     C        00:00:00:09 00:00:03:18 01:17:58:15 01:18:02:00 * FROM CLIP NAME:  027_JER_0115_CMP_V0021.MOV * LOC: 01:18:00:15 CYAN    027_JER_0115 087  027_JER_ V     C        00:00:00:17 00:00:09:17 01:18:04:00 01:18:13:00 * FROM CLIP NAME:  027_JER_0100_CMP_V0077.MOV * LOC: 01:18:09:03 CYAN    027_JER_0100 * LOC: 01:18:09:22 MAGENTA 088  029_JOD_ V     C        00:00:00:09 00:00:06:11 01:18:13:00 01:18:19:02 * FROM CLIP NAME:  029_JOD_0005_ANIM_V1036.MOV * LOC: 01:18:16:08 CYAN    029_JOD_0005 089  027_JER_ V     C        00:00:00:09 00:00:03:20 01:18:19:02 01:18:22:13 * FROM CLIP NAME:  027_JER_0130_CMP_V0062.MOV * LOC: 01:18:21:01 CYAN    027_JER_0130 090  029_JOD_ V     C        00:00:00:09 00:00:03:01 01:18:22:13 01:18:25:05 * FROM CLIP NAME:  029_JOD_0010_CMP_V0072.MOV * LOC: 01:18:23:01 MAGENTA * LOC: 01:18:24:04 CYAN    029_JOD_0010 091  027_JER_ V     C        00:00:00:21 00:00:04:18 01:18:25:05 01:18:29:02 * FROM CLIP NAME:  027_JER_0140_CMP_V0042.MOV * LOC: 01:18:27:14 CYAN    027_JER_0140 092  029_JOD_ V     C        00:00:00:09 00:00:03:23 01:18:29:02 01:18:32:16 * FROM CLIP NAME:  029_JOD_0040_ANIM_V1075.MOV * LOC: 01:18:31:05 CYAN    029_JOD_0040 093  029_JOD_ V     C        00:00:00:16 00:00:05:19 01:18:32:16 01:18:37:19 * FROM CLIP NAME:  029_JOD_0050_CMP_V0093.MOV * LOC: 01:18:35:14 CYAN    029_JOD_0050 094  029_JOD_ V     C        00:00:00:09 00:00:03:00 01:18:37:19 01:18:40:10 * FROM CLIP NAME:  029_JOD_0060_CMP_V0068.MOV * LOC: 01:18:39:04 CYAN    029_JOD_0060 095  029_JOD_ V     C        00:00:00:09 00:00:05:02 01:18:40:10 01:18:45:03 * FROM CLIP NAME:  029_JOD_0080_CMP_V0029.MOV * LOC: 01:18:43:09 CYAN    029_JOD_0080 096  029_JOD_ V     C        00:00:00:09 00:00:04:17 01:18:45:03 01:18:49:11 * FROM CLIP NAME:  029_JOD_0090_ANIM_V1043.MOV * LOC: 01:18:48:02 CYAN    029_JOD_0090 097  029_JOD_ V     C        00:00:00:09 00:00:02:12 01:18:49:11 01:18:51:14 * FROM CLIP NAME:  029_JOD_0100_CMP_V0037.MOV * LOC: 01:18:50:14 CYAN    029_JOD_0100 098  029_JOD_ V     C        00:00:00:09 00:00:02:08 01:18:51:14 01:18:53:13 * FROM CLIP NAME:  029_JOD_0110_CMP_V0029.MOV * LOC: 01:18:52:19 CYAN    029_JOD_0110 099  029_JOD_ V     C        00:00:00:09 00:00:01:20 01:18:53:13 01:18:55:00 * FROM CLIP NAME:  029_JOD_0120_CMP_V0026.MOV * LOC: 01:18:54:06 CYAN    029_JOD_0120 100  029_JOD_ V     C        00:00:00:09 00:00:05:15 01:18:55:00 01:19:00:06 * FROM CLIP NAME:  029_JOD_0130_CMP_V0031.MOV * LOC: 01:18:58:11 CYAN    029_JOD_0130 101  029_JOD_ V     C        00:00:00:09 00:00:03:22 01:19:00:06 01:19:03:19 * FROM CLIP NAME:  029_JOD_0140_CMP_V0028.MOV * LOC: 01:19:01:22 CYAN    029_JOD_0140 102  029_JOD_ V     C        00:00:00:09 00:00:04:08 01:19:03:19 01:19:07:18 * FROM CLIP NAME:  029_JOD_0150_CMP_V0026.MOV * LOC: 01:19:06:04 CYAN    029_JOD_0150 103  029_JOD_ V     C        00:00:00:13 00:00:08:19 01:19:07:18 01:19:16:00 * FROM CLIP NAME:  029_JOD_0160_ANIM_V1066.MOV * LOC: 01:19:13:03 CYAN    029_JOD_0160 104  029_JOD_ V     C        00:00:00:09 00:00:05:13 01:19:16:00 01:19:21:04 * FROM CLIP NAME:  029_JOD_0180_ANIM_V1053.MOV * LOC: 01:19:17:09 CYAN    029_JOD_0180 105  029_JOD_ V     C        00:00:00:09 00:00:06:20 01:19:21:04 01:19:27:15 * FROM CLIP NAME:  029_JOD_0200_CMP_V0080.MOV * LOC: 01:19:22:20 MAGENTA * LOC: 01:19:25:05 CYAN    029_JOD_0200 106  SIGNATUR V     C        00:00:00:00 00:00:00:00 01:19:27:15 01:19:37:13 * FROM CLIP NAME:  END-ONE POP 