TITLE:   TEST EDL SG 141211FCM: NON-DROP FRAME000001  A071C028_140610_R0UT             V     C        16:29:31:08 16:29:31:19 00:00:00:01 00:00:00:12*FROM CLIP NAME:  73V_2000002  P_070_NA_0330_MASTER_V018        V     C        00:00:00:13 00:00:01:22 00:00:00:12 00:00:01:21*FROM CLIP NAME:  P_070_NA_0330_MASTER_V018.NEW.01000003  C040C028_140908_R55R             V     C        15:15:03:20 15:15:04:20 00:00:01:21 00:00:02:21*FROM CLIP NAME:  V73B_7000004  D045C001_140610_R0RT             V     C        17:58:55:00 17:58:56:00 00:00:02:21 00:00:03:21*FROM CLIP NAME:  73W_1000005  U73D_5_AEF_015.MOV               V     C        00:00:05:17 00:00:14:13 00:00:03:21 00:00:12:17*FROM CLIP NAME:  U73D_5_AEF_015.MOV000006  U73H_2_AEF_003.MOV               V     C        00:00:00:07 00:00:01:13 00:00:12:17 00:00:13:23*FROM CLIP NAME:  U73H_2_AEF_003.MOV000007  U73E_3_28FPS_AEF_005.MOV         V     C        00:00:00:00 00:00:01:15 00:00:13:23 00:00:15:14*FROM CLIP NAME:  U73E_3_28FPS_AEF_005.MOV000008  073_NA_0532_V004.MOV             V     C        01:00:03:05 01:00:05:05 00:00:15:14 00:00:17:14*FROM CLIP NAME:  073_NA_0532_V004.MOV000009  073_NA_0532_V004.MOV             V     C        01:00:05:05 01:00:05:05 00:00:17:14 00:00:17:14000009  BL                               V     D    005 00:00:00:00 00:00:00:05 00:00:17:14 00:00:17:19*EFF2_BLEND_DISSOLVE*FROM CLIP NAME:  073_NA_0532_V004.MOV000010  073_NA_0540_V2008.MOV            V     C        01:00:04:00 01:00:08:08 00:00:18:12 00:00:22:20*FROM CLIP NAME:  073_NA_0540_V2008.MOV000011  073_NA_0550_V2413.MOV            V     C        01:00:00:01 01:00:03:08 00:00:22:20 00:00:26:03*FROM CLIP NAME:  073_NA_0550_V2413.MOV